HIERARCHY
ROOT Hips
{
	OFFSET 0.000000 0.000000 0.000000
	CHANNELS 6 Xposition Yposition Zposition Zrotation Yrotation Xrotation 
	JOINT Spine1
	{
		OFFSET -0.013727 5.003763 -0.053727
		CHANNELS 3 Zrotation Yrotation Xrotation
		JOINT Spine2
		{
			OFFSET -0.000000 7.125302 -0.029825
			CHANNELS 3 Zrotation Yrotation Xrotation
			JOINT Chest
			{
				OFFSET -0.000001 7.550065 -0.815971
				CHANNELS 3 Zrotation Yrotation Xrotation
				JOINT Neck1
				{
					OFFSET -0.181676 26.311296 -0.553349
					CHANNELS 3 Zrotation Yrotation Xrotation
					JOINT Neck2
					{
						OFFSET -0.000003 7.709399 2.302586
						CHANNELS 3 Zrotation Yrotation Xrotation
						JOINT Head
						{
							OFFSET -0.000005 6.128913 1.953708
							CHANNELS 3 Zrotation Yrotation Xrotation
							JOINT HeadEnd
							{
								OFFSET 0.003598 16.065403 -1.835380
								CHANNELS 3 Zrotation Yrotation Xrotation
								End Site
								{
									OFFSET 0.000000 0.000000 0.000000
								}
							}
							JOINT Jaw
							{
								OFFSET 0.002637 0.475592 3.094940
								CHANNELS 3 Zrotation Yrotation Xrotation
								End Site
								{
									OFFSET 0.000000 0.000000 0.000000
								}
							}
							JOINT LeftEye
							{
								OFFSET 3.206380 5.380208 7.586883
								CHANNELS 3 Zrotation Yrotation Xrotation
								End Site
								{
									OFFSET 0.000000 0.000000 0.000000
								}
							}
							JOINT RightEye
							{
								OFFSET -3.222440 5.361867 7.558233
								CHANNELS 3 Zrotation Yrotation Xrotation
								End Site
								{
									OFFSET 0.000000 0.000000 0.000000
								}
							}
						}
					}
				}
				JOINT LeftShoulder
				{
					OFFSET 1.621652 23.237164 5.113414
					CHANNELS 3 Zrotation Yrotation Xrotation
					JOINT LeftArm
					{
						OFFSET 14.919845 -0.000001 -5.502326
						CHANNELS 3 Zrotation Yrotation Xrotation
						JOINT LeftForeArm
						{
							OFFSET 28.739309 0.000003 -0.002588
							CHANNELS 3 Zrotation Yrotation Xrotation
							JOINT LeftHand
							{
								OFFSET 27.093979 -0.000003 0.002609
								CHANNELS 3 Zrotation Yrotation Xrotation
								JOINT LeftHandThumb1
								{
									OFFSET 2.276481 -1.392045 3.191413
									CHANNELS 3 Zrotation Yrotation Xrotation
									JOINT LeftHandThumb2
									{
										OFFSET 4.012841 -1.828126 1.641655
										CHANNELS 3 Zrotation Yrotation Xrotation
										JOINT LeftHandThumb3
										{
											OFFSET 2.798516 -0.000000 -0.000004
											CHANNELS 3 Zrotation Yrotation Xrotation
											JOINT LeftHandThumbEnd
											{
												OFFSET 3.180791 -0.000002 0.000003
												CHANNELS 3 Zrotation Yrotation Xrotation
												End Site
												{
													OFFSET 0.000000 0.000000 0.000000
												}
											}
										}
									}
								}
								JOINT LeftHandIndex1
								{
									OFFSET 3.247552 -0.531998 2.296169
									CHANNELS 3 Zrotation Yrotation Xrotation
									JOINT LeftHandIndex2
									{
										OFFSET 6.364579 0.012062 0.178599
										CHANNELS 3 Zrotation Yrotation Xrotation
										JOINT LeftHandIndex3
										{
											OFFSET 3.662366 0.000001 0.000000
											CHANNELS 3 Zrotation Yrotation Xrotation
											JOINT LeftHandIndex4
											{
												OFFSET 2.329243 0.000002 0.000004
												CHANNELS 3 Zrotation Yrotation Xrotation
												JOINT LeftHandIndexEnd
												{
													OFFSET 2.759619 -0.180537 -0.113022
													CHANNELS 3 Zrotation Yrotation Xrotation
													End Site
													{
														OFFSET 0.000000 0.000000 0.000000
													}
												}
											}
										}
									}
								}
								JOINT LeftHandMiddle1
								{
									OFFSET 3.163498 0.240981 1.000332
									CHANNELS 3 Zrotation Yrotation Xrotation
									JOINT LeftHandMiddle2
									{
										OFFSET 6.190778 -0.259276 -1.002548
										CHANNELS 3 Zrotation Yrotation Xrotation
										JOINT LeftHandMiddle3
										{
											OFFSET 4.356522 -0.000007 0.000000
											CHANNELS 3 Zrotation Yrotation Xrotation
											JOINT LeftHandMiddle4
											{
												OFFSET 2.996875 -0.000007 0.000001
												CHANNELS 3 Zrotation Yrotation Xrotation
												JOINT LeftHandMiddleEnd
												{
													OFFSET 2.304294 -0.294571 -0.031739
													CHANNELS 3 Zrotation Yrotation Xrotation
													End Site
													{
														OFFSET 0.000000 0.000000 0.000000
													}
												}
											}
										}
									}
								}
								JOINT LeftHandRing1
								{
									OFFSET 2.882641 -0.053650 -0.322544
									CHANNELS 3 Zrotation Yrotation Xrotation
									JOINT LeftHandRing2
									{
										OFFSET 5.854543 -0.486203 -1.373840
										CHANNELS 3 Zrotation Yrotation Xrotation
										JOINT LeftHandRing3
										{
											OFFSET 4.350581 0.000001 0.000004
											CHANNELS 3 Zrotation Yrotation Xrotation
											JOINT LeftHandRing4
											{
												OFFSET 2.651324 0.000007 0.000003
												CHANNELS 3 Zrotation Yrotation Xrotation
												JOINT LeftHandRingEnd
												{
													OFFSET 1.936111 0.077685 -0.000070
													CHANNELS 3 Zrotation Yrotation Xrotation
													End Site
													{
														OFFSET 0.000000 0.000000 0.000000
													}
												}
											}
										}
									}
								}
								JOINT LeftHandPinky1
								{
									OFFSET 2.865499 -0.310004 -1.600378
									CHANNELS 3 Zrotation Yrotation Xrotation
									JOINT LeftHandPinky2
									{
										OFFSET 5.087853 -1.331142 -1.771231
										CHANNELS 3 Zrotation Yrotation Xrotation
										JOINT LeftHandPinky3
										{
											OFFSET 3.070975 0.000003 0.000000
											CHANNELS 3 Zrotation Yrotation Xrotation
											JOINT LeftHandPinky4
											{
												OFFSET 1.549667 0.000000 0.000001
												CHANNELS 3 Zrotation Yrotation Xrotation
												JOINT LeftHandPinkyEnd
												{
													OFFSET 1.944894 -0.157801 0.057219
													CHANNELS 3 Zrotation Yrotation Xrotation
													End Site
													{
														OFFSET 0.000000 0.000000 0.000000
													}
												}
											}
										}
									}
								}
							}
						}
					}
				}
				JOINT RightShoulder
				{
					OFFSET -1.380118 23.180305 5.214158
					CHANNELS 3 Zrotation Yrotation Xrotation
					JOINT RightArm
					{
						OFFSET -15.037197 0.000012 -5.545603
						CHANNELS 3 Zrotation Yrotation Xrotation
						JOINT RightForeArm
						{
							OFFSET -28.736639 0.000003 -0.002597
							CHANNELS 3 Zrotation Yrotation Xrotation
							JOINT RightHand
							{
								OFFSET -27.133617 -0.000000 0.002612
								CHANNELS 3 Zrotation Yrotation Xrotation
								JOINT RightHandThumb1
								{
									OFFSET -2.274036 -1.383990 3.163127
									CHANNELS 3 Zrotation Yrotation Xrotation
									JOINT RightHandThumb2
									{
										OFFSET -4.011429 -1.827468 1.640915
										CHANNELS 3 Zrotation Yrotation Xrotation
										JOINT RightHandThumb3
										{
											OFFSET -2.794935 -0.000003 -0.000003
											CHANNELS 3 Zrotation Yrotation Xrotation
											JOINT RightHandThumbEnd
											{
												OFFSET -3.183855 0.000003 0.000000
												CHANNELS 3 Zrotation Yrotation Xrotation
												End Site
												{
													OFFSET 0.000000 0.000000 0.000000
												}
											}
										}
									}
								}
								JOINT RightHandIndex1
								{
									OFFSET -3.253269 -0.520059 2.282866
									CHANNELS 3 Zrotation Yrotation Xrotation
									JOINT RightHandIndex2
									{
										OFFSET -6.341918 0.012473 0.178265
										CHANNELS 3 Zrotation Yrotation Xrotation
										JOINT RightHandIndex3
										{
											OFFSET -3.654875 -0.000008 -0.000001
											CHANNELS 3 Zrotation Yrotation Xrotation
											JOINT RightHandIndex4
											{
												OFFSET -2.327586 0.000000 -0.000000
												CHANNELS 3 Zrotation Yrotation Xrotation
												JOINT RightHandIndexEnd
												{
													OFFSET -2.761789 -0.180657 -0.113078
													CHANNELS 3 Zrotation Yrotation Xrotation
													End Site
													{
														OFFSET 0.000000 0.000000 0.000000
													}
												}
											}
										}
									}
								}
								JOINT RightHandMiddle1
								{
									OFFSET -3.168105 0.246593 1.001030
									CHANNELS 3 Zrotation Yrotation Xrotation
									JOINT RightHandMiddle2
									{
										OFFSET -6.180830 -0.258835 -1.000896
										CHANNELS 3 Zrotation Yrotation Xrotation
										JOINT RightHandMiddle3
										{
											OFFSET -4.348905 -0.000000 -0.000001
											CHANNELS 3 Zrotation Yrotation Xrotation
											JOINT RightHandMiddle4
											{
												OFFSET -3.000242 -0.000005 -0.000003
												CHANNELS 3 Zrotation Yrotation Xrotation
												JOINT RightHandMiddleEnd
												{
													OFFSET -2.302518 -0.294371 -0.031706
													CHANNELS 3 Zrotation Yrotation Xrotation
													End Site
													{
														OFFSET 0.000000 0.000000 0.000000
													}
												}
											}
										}
									}
								}
								JOINT RightHandRing1
								{
									OFFSET -2.885693 -0.067952 -0.308858
									CHANNELS 3 Zrotation Yrotation Xrotation
									JOINT RightHandRing2
									{
										OFFSET -5.854196 -0.486132 -1.373731
										CHANNELS 3 Zrotation Yrotation Xrotation
										JOINT RightHandRing3
										{
											OFFSET -4.338813 -0.000003 -0.000001
											CHANNELS 3 Zrotation Yrotation Xrotation
											JOINT RightHandRing4
											{
												OFFSET -2.654906 -0.000004 0.000004
												CHANNELS 3 Zrotation Yrotation Xrotation
												JOINT RightHandRingEnd
												{
													OFFSET -1.933571 0.077525 -0.000052
													CHANNELS 3 Zrotation Yrotation Xrotation
													End Site
													{
														OFFSET 0.000000 0.000000 0.000000
													}
												}
											}
										}
									}
								}
								JOINT RightHandPinky1
								{
									OFFSET -2.866430 -0.342798 -1.584144
									CHANNELS 3 Zrotation Yrotation Xrotation
									JOINT RightHandPinky2
									{
										OFFSET -5.091369 -1.332054 -1.772385
										CHANNELS 3 Zrotation Yrotation Xrotation
										JOINT RightHandPinky3
										{
											OFFSET -3.062666 -0.000007 0.000001
											CHANNELS 3 Zrotation Yrotation Xrotation
											JOINT RightHandPinky4
											{
												OFFSET -1.546528 0.000006 -0.000002
												CHANNELS 3 Zrotation Yrotation Xrotation
												JOINT RightHandPinkyEnd
												{
													OFFSET -1.945122 -0.157722 0.057211
													CHANNELS 3 Zrotation Yrotation Xrotation
													End Site
													{
														OFFSET 0.000000 0.000000 0.000000
													}
												}
											}
										}
									}
								}
							}
						}
					}
				}
			}
		}
	}
	JOINT LeftLeg
	{
		OFFSET 10.043214 -8.434526 2.595655
		CHANNELS 3 Zrotation Yrotation Xrotation
		JOINT LeftShin
		{
			OFFSET -0.000001 -43.221752 -0.802913
			CHANNELS 3 Zrotation Yrotation Xrotation
			JOINT LeftFoot
			{
				OFFSET 0.000002 -42.155094 -3.481523
				CHANNELS 3 Zrotation Yrotation Xrotation
				JOINT LeftToeBase
				{
					OFFSET 0.000000 -5.059475 13.231529
					CHANNELS 3 Zrotation Yrotation Xrotation
					JOINT LeftToeEnd
					{
						OFFSET -0.009607 -1.647616 6.513017
						CHANNELS 3 Zrotation Yrotation Xrotation
						End Site
						{
							OFFSET 0.000000 0.000000 0.000000
						}
					}
				}
			}
		}
	}
	JOINT RightLeg
	{
		OFFSET -10.047277 -8.295259 2.620317
		CHANNELS 3 Zrotation Yrotation Xrotation
		JOINT RightShin
		{
			OFFSET 0.000001 -43.362209 -0.805556
			CHANNELS 3 Zrotation Yrotation Xrotation
			JOINT RightFoot
			{
				OFFSET 0.000002 -42.117393 -3.478399
				CHANNELS 3 Zrotation Yrotation Xrotation
				JOINT RightToeBase
				{
					OFFSET -0.000000 -5.079608 13.284196
					CHANNELS 3 Zrotation Yrotation Xrotation
					JOINT RightToeEnd
					{
						OFFSET 0.009532 -1.634383 6.460591
						CHANNELS 3 Zrotation Yrotation Xrotation
						End Site
						{
							OFFSET 0.000000 0.000000 0.000000
						}
					}
				}
			}
		}
	}
}
MOTION
Frames: 4
Frame Time: 0.033333
0.524311 97.083794 -2.208792 -1.559424 3.594127 7.022336 -0.181770 0.069101 3.175840 -0.518141 -0.196908 -3.452600 -0.201586 -2.514348 20.265480 -7.151682 7.084159 17.258410 0.234129 6.762807 -3.791793 -5.869343 7.049464 -18.386602 0.000076 -0.000023 0.000005 0.020458 -0.014637 0.010815 0.636220 -3.675011 -10.432801 -0.601984 3.656490 -10.453398 13.645438 -15.691930 6.737635 -74.494225 -32.871166 -16.557121 179.517517 -51.855072 -179.913605 3.795213 -11.545859 -3.868430 -5.882100 9.861277 0.702589 -10.936859 -0.360574 7.156196 0.000003 8.774813 0.000000 -16.391621 18.583256 6.205816 -1.844032 2.498506 -2.507277 -10.163589 4.678940 4.621102 -20.975994 -0.000006 -0.000002 -21.226254 2.451688 -3.593995 0.000001 -0.000006 -0.000001 -1.362680 2.240794 -0.746323 -21.334890 0.584904 3.008318 -13.821197 -0.000005 0.000001 -23.887133 -0.249082 -0.839482 -61.681114 2.494498 -1.325444 -0.294024 1.679687 0.833255 -14.218194 0.093214 1.300576 -34.211998 -0.287571 0.967166 -20.033180 0.964531 1.212840 -0.000000 -0.000000 0.000000 -3.440386 0.788231 0.501655 -15.928164 -3.167308 2.999701 -6.338817 -0.000002 0.000000 -18.123413 3.648172 -4.905663 -0.000005 -0.000001 -0.000002 -16.952330 19.806421 5.900900 81.520302 44.923946 15.363287 179.329575 50.319996 179.518539 -7.797249 2.358106 -4.891705 2.243537 -5.255033 -3.180154 14.282877 -0.826593 6.952497 -0.000004 -12.690587 0.000000 16.423092 -18.024179 2.444999 1.665666 -1.955920 -2.878299 4.727793 -4.170581 4.993918 11.020510 0.000004 -0.000001 12.109031 -3.735710 -2.866780 0.000001 -0.000000 0.000001 1.291984 -1.928548 -1.498089 14.800114 0.567467 3.865603 14.242554 -1.341733 -6.660650 19.631939 0.143927 -0.648242 49.998524 -0.836595 -6.283976 0.353029 -1.511149 -0.031940 20.222767 3.684309 2.316628 18.787243 0.000007 -0.000001 10.751610 -0.479867 1.397906 0.000000 0.000000 -0.000002 3.273803 0.305948 -0.580109 21.486792 11.830365 2.266132 8.162915 0.000002 0.000001 18.399048 -3.798977 -4.940568 0.000002 0.000001 0.000000 12.092499 11.257644 -28.300003 -0.223871 -0.655974 25.451687 -14.581532 -5.114623 1.245306 1.631975 -1.798469 -0.472765 -0.000000 0.000000 0.000002 -5.927687 -13.699360 -10.130069 -0.037903 0.273954 25.321320 15.872231 -10.593767 -15.790936 -1.439064 0.998065 -1.167141 0.000000 0.000000 -0.000001 
0.509315 97.103844 -1.789891 -1.317281 3.843399 7.014812 -0.069117 0.060034 3.086104 -0.463099 -0.220066 -3.477410 -0.022552 -2.597757 20.223352 -7.098890 7.017759 17.339687 0.190642 6.794292 -3.773646 -6.113671 7.086239 -18.468704 0.000077 -0.000023 0.000006 0.015885 0.002389 0.015827 0.636037 -3.668991 -10.438023 -0.610516 3.672397 -10.460902 13.702436 -15.628882 6.791989 -74.662750 -32.452366 -16.570026 179.452698 -51.713913 -179.828659 3.942492 -11.539859 -4.041312 -5.882102 9.861273 0.702591 -10.936862 -0.360574 7.156199 0.000002 8.774809 0.000001 -16.387371 18.608288 6.247632 -1.844032 2.498502 -2.507276 -10.163590 4.678939 4.621106 -20.975998 -0.000004 0.000004 -21.226255 2.451692 -3.593990 0.000001 -0.000006 -0.000001 -1.362681 2.240796 -0.746323 -21.334898 0.584909 3.008321 -13.821197 -0.000002 0.000003 -23.887136 -0.249077 -0.839479 -61.738453 2.520272 -1.350121 -0.294025 1.679687 0.833255 -14.218194 0.093214 1.300580 -34.212013 -0.287563 0.967170 -20.033184 0.964535 1.212842 -0.000000 0.000000 0.000002 -3.440387 0.788232 0.501655 -15.928171 -3.167304 2.999704 -6.338815 -0.000001 0.000001 -18.123415 3.648175 -4.905659 -0.000006 -0.000000 -0.000002 -16.967684 19.668674 6.005645 81.261787 44.697144 14.833700 179.288193 49.972900 179.477753 -7.648642 2.421810 -4.331995 2.243541 -5.255031 -3.180155 14.282878 -0.826592 6.952494 -0.000002 -12.690587 0.000001 16.401127 -18.008577 2.469593 1.665665 -1.955920 -2.878298 4.727792 -4.170583 4.993916 11.020514 0.000002 -0.000004 12.109033 -3.735708 -2.866780 -0.000001 -0.000000 0.000001 1.291984 -1.928549 -1.498090 14.800111 0.567467 3.865602 14.242554 -1.341732 -6.660649 19.631941 0.143927 -0.648247 49.962109 -0.833920 -6.250142 0.353028 -1.511148 -0.031940 20.222773 3.684304 2.316627 18.787245 0.000007 -0.000002 10.751611 -0.479867 1.397900 0.000000 -0.000000 -0.000001 3.273803 0.305949 -0.580109 21.486795 11.830362 2.266124 8.162916 0.000002 -0.000002 18.399054 -3.798977 -4.940567 0.000003 0.000001 -0.000001 11.899579 10.977982 -28.073957 -0.224480 -0.648010 25.459248 -14.619487 -5.115260 1.077566 1.635513 -1.798429 -0.473866 -0.000000 0.000000 0.000002 -6.232180 -13.829908 -9.616736 -0.028430 0.263090 25.045536 16.038858 -10.611812 -15.866489 -1.441949 1.014081 -1.127148 0.000000 0.000000 -0.000001 
0.518862 97.134796 -1.354722 -1.083191 4.102694 6.942283 0.047770 0.030062 2.996622 -0.402532 -0.229397 -3.507083 0.173515 -2.686800 20.188440 -7.072522 6.986875 17.474195 0.160624 6.792453 -3.794787 -6.338631 7.133919 -18.511469 0.000077 -0.000024 0.000005 0.012595 0.008656 0.015923 0.636905 -3.667471 -10.443484 -0.617446 3.683904 -10.466113 13.731637 -15.562925 6.817528 -74.837791 -32.032478 -16.566448 179.423172 -51.570656 -179.821121 4.007209 -11.527136 -4.156290 -5.882102 9.861281 0.702589 -10.936858 -0.360576 7.156198 0.000000 8.774817 -0.000002 -16.386038 18.677000 6.266795 -1.844031 2.498501 -2.507276 -10.163590 4.678940 4.621104 -20.975994 -0.000001 0.000002 -21.226254 2.451691 -3.593995 0.000001 -0.000006 -0.000001 -1.362680 2.240796 -0.746323 -21.334887 0.584909 3.008322 -13.821197 -0.000002 0.000003 -23.887131 -0.249077 -0.839480 -61.788231 2.553705 -1.384044 -0.294024 1.679684 0.833256 -14.218194 0.093217 1.300579 -34.212002 -0.287563 0.967172 -20.033180 0.964536 1.212840 0.000000 -0.000000 0.000001 -3.440385 0.788232 0.501655 -15.928165 -3.167307 2.999706 -6.338816 0.000001 0.000001 -18.123415 3.648179 -4.905660 -0.000004 -0.000000 -0.000002 -16.928413 19.495432 6.170900 81.037003 44.458839 14.376642 179.286987 49.707104 179.482452 -7.439396 2.571505 -3.882770 2.243541 -5.255033 -3.180156 14.282875 -0.826593 6.952496 -0.000001 -12.690591 0.000001 16.335026 -18.014790 2.487069 1.665663 -1.955919 -2.878296 4.727793 -4.170583 4.993919 11.020511 0.000003 -0.000002 12.109032 -3.735711 -2.866778 -0.000000 -0.000000 -0.000001 1.291983 -1.928547 -1.498089 14.800111 0.567469 3.865602 14.242551 -1.341735 -6.660647 19.631939 0.143926 -0.648242 49.926884 -0.850353 -6.248029 0.353028 -1.511149 -0.031940 20.222767 3.684305 2.316630 18.787245 0.000004 -0.000002 10.751610 -0.479867 1.397904 0.000000 0.000000 0.000000 3.273804 0.305949 -0.580109 21.486792 11.830364 2.266132 8.162916 0.000003 -0.000001 18.399050 -3.798980 -4.940566 0.000002 0.000002 -0.000002 11.730231 10.695080 -27.826267 -0.211273 -0.643856 25.522429 -14.673857 -5.150769 1.037242 1.639508 -1.795930 -0.525576 -0.000000 -0.000000 0.000002 -6.539175 -13.956901 -9.047046 -0.018500 0.262728 24.741051 16.176643 -10.640042 -15.879844 -1.442142 1.017470 -1.131679 0.000000 -0.000001 -0.000001 
0.482233 97.149452 -0.968682 -0.867834 4.369081 6.828061 0.159759 0.015288 2.891428 -0.336559 -0.266682 -3.536093 0.373573 -2.792691 20.162977 -7.065491 6.966342 17.621000 0.158656 6.836966 -3.808273 -6.533276 7.207225 -18.537218 0.000077 -0.000022 0.000005 0.009216 0.002489 0.018700 0.630717 -3.670008 -10.434905 -0.619012 3.676371 -10.459946 13.787561 -15.548959 6.866358 -75.011848 -31.638016 -16.575245 179.395126 -51.381489 -179.818207 3.983814 -11.464787 -4.264106 -5.882101 9.861278 0.702591 -10.936861 -0.360574 7.156198 -0.000000 8.774814 -0.000000 -16.388474 18.742397 6.298231 -1.844032 2.498504 -2.507276 -10.163592 4.678939 4.621104 -20.975996 -0.000004 0.000002 -21.226255 2.451692 -3.593995 0.000001 -0.000006 -0.000001 -1.362682 2.240795 -0.746323 -21.334892 0.584912 3.008320 -13.821197 -0.000002 0.000002 -23.887131 -0.249076 -0.839481 -61.815578 2.566184 -1.397409 -0.294025 1.679686 0.833256 -14.218194 0.093214 1.300579 -34.212006 -0.287561 0.967171 -20.033180 0.964536 1.212843 -0.000000 0.000000 0.000001 -3.440386 0.788233 0.501656 -15.928167 -3.167304 2.999704 -6.338818 -0.000001 0.000001 -18.123415 3.648177 -4.905659 -0.000005 -0.000000 -0.000002 -16.822197 19.351765 6.360116 80.782257 44.202225 13.914501 179.212112 49.487782 179.402313 -7.270534 2.653782 -3.619828 2.243539 -5.255033 -3.180154 14.282873 -0.826593 6.952496 -0.000002 -12.690591 0.000000 16.343147 -17.975451 2.512186 1.665664 -1.955919 -2.878297 4.727794 -4.170583 4.993918 11.020510 0.000004 -0.000003 12.109031 -3.735708 -2.866779 -0.000000 -0.000001 0.000000 1.291983 -1.928545 -1.498087 14.800113 0.567466 3.865602 14.242553 -1.341736 -6.660649 19.631935 0.143926 -0.648242 49.953339 -0.853060 -6.232641 0.353028 -1.511149 -0.031938 20.222769 3.684306 2.316627 18.787245 0.000005 -0.000001 10.751609 -0.479869 1.397905 0.000000 -0.000001 -0.000001 3.273804 0.305946 -0.580111 21.486788 11.830363 2.266130 8.162916 0.000002 -0.000002 18.399050 -3.798978 -4.940567 0.000003 0.000001 -0.000002 11.585543 10.419853 -27.543839 -0.199376 -0.642536 25.541475 -14.707624 -5.223797 0.963884 1.638127 -1.786476 -0.588198 -0.000000 -0.000000 0.000002 -6.810063 -14.069815 -8.413220 -0.015822 0.264035 24.559315 16.344189 -10.683098 -15.901378 -1.445452 1.027553 -1.186553 -0.000000 -0.000000 -0.000001 
